<svg width="44" height="34" viewBox="0 0 44 34" fill="none" xmlns="http://www.w3.org/2000/svg">
<path d="M43.1664 11.2271C43.5016 10.9526 44 11.2094 44 11.6432V29.75C44 32.0964 42.1523 34 39.875 34H4.125C1.84766 34 0 32.0964 0 29.75V11.6521C0 11.2094 0.489844 10.9615 0.833594 11.2359C2.75859 12.7766 5.31094 14.7333 14.0766 21.2943C15.8898 22.6578 18.9492 25.5266 22 25.5089C25.068 25.5354 28.1875 22.6047 29.932 21.2943C38.6977 14.7333 41.2414 12.7677 43.1664 11.2271ZM22 22.6667C23.9937 22.7021 26.8641 20.0812 28.3078 19.001C39.7117 10.4745 40.5797 9.73073 43.2094 7.60573C43.7078 7.20729 44 6.5875 44 5.93229V4.25C44 1.90365 42.1523 0 39.875 0H4.125C1.84766 0 0 1.90365 0 4.25V5.93229C0 6.5875 0.292187 7.19844 0.790625 7.60573C3.42031 9.72187 4.28828 10.4745 15.6922 19.001C17.1359 20.0812 20.0063 22.7021 22 22.6667Z" fill="#17A2AF"/>
</svg>
