<svg width="43" height="30" viewBox="0 0 43 30" fill="none" xmlns="http://www.w3.org/2000/svg">
<path d="M42.1015 4.69398C41.6069 2.84633 40.1499 1.39117 38.2998 0.897344C34.9465 0 21.5 0 21.5 0C21.5 0 8.05359 0 4.70018 0.897344C2.85014 1.39125 1.39306 2.84633 0.898527 4.69398C0 8.04297 0 15.0303 0 15.0303C0 15.0303 0 22.0177 0.898527 25.3666C1.39306 27.2143 2.85014 28.6088 4.70018 29.1027C8.05359 30 21.5 30 21.5 30C21.5 30 34.9464 30 38.2998 29.1027C40.1499 28.6088 41.6069 27.2143 42.1015 25.3666C43 22.0177 43 15.0303 43 15.0303C43 15.0303 43 8.04297 42.1015 4.69398ZM17.1022 21.3743V8.68633L28.3408 15.0305L17.1022 21.3743Z" fill="#17A2AF"/>
</svg>
