<svg width="39" height="39" viewBox="0 0 39 39" fill="none" xmlns="http://www.w3.org/2000/svg">
<path d="M19.5044 9.50089C13.9708 9.50089 9.50747 13.9652 9.50747 19.5C9.50747 25.0348 13.9708 29.4991 19.5044 29.4991C25.0379 29.4991 29.5012 25.0348 29.5012 19.5C29.5012 13.9652 25.0379 9.50089 19.5044 9.50089ZM19.5044 26.0007C15.9284 26.0007 13.0051 23.0854 13.0051 19.5C13.0051 15.9146 15.9197 12.9993 19.5044 12.9993C23.089 12.9993 26.0036 15.9146 26.0036 19.5C26.0036 23.0854 23.0803 26.0007 19.5044 26.0007ZM32.2419 9.09188C32.2419 10.3885 31.1978 11.4241 29.9102 11.4241C28.6138 11.4241 27.5784 10.3798 27.5784 9.09188C27.5784 7.80392 28.6225 6.75962 29.9102 6.75962C31.1978 6.75962 32.2419 7.80392 32.2419 9.09188ZM38.863 11.4589C38.7151 8.33477 38.0016 5.56739 35.7134 3.28735C33.4339 1.00731 30.6671 0.293707 27.5436 0.137063C24.3244 -0.0456878 14.6756 -0.0456878 11.4564 0.137063C8.34161 0.285005 5.57485 0.998605 3.28661 3.27865C0.998383 5.55869 0.293642 8.32606 0.137033 11.4502C-0.0456776 14.6701 -0.0456776 24.3212 0.137033 27.5411C0.284941 30.6652 0.998383 33.4326 3.28661 35.7127C5.57485 37.9927 8.33291 38.7063 11.4564 38.8629C14.6756 39.0457 24.3244 39.0457 27.5436 38.8629C30.6671 38.715 33.4339 38.0014 35.7134 35.7127C37.9929 33.4326 38.7064 30.6652 38.863 27.5411C39.0457 24.3212 39.0457 14.6788 38.863 11.4589ZM34.7041 30.9959C34.0255 32.7016 32.7117 34.0157 30.9977 34.7032C28.4311 35.7214 22.3407 35.4864 19.5044 35.4864C16.668 35.4864 10.5689 35.7127 8.01099 34.7032C6.30569 34.0244 4.99191 32.7103 4.30457 30.9959C3.28661 28.4287 3.52153 22.337 3.52153 19.5C3.52153 16.663 3.29532 10.5626 4.30457 8.00407C4.98321 6.29839 6.29699 4.98432 8.01099 4.29683C10.5776 3.27865 16.668 3.51361 19.5044 3.51361C22.3407 3.51361 28.4398 3.28735 30.9977 4.29683C32.703 4.97562 34.0168 6.28969 34.7041 8.00407C35.7221 10.5713 35.4872 16.663 35.4872 19.5C35.4872 22.337 35.7221 28.4374 34.7041 30.9959Z" fill="#17A2AF"/>
</svg>
