<?xml version="1.0" encoding="UTF-8"?>
<svg id="Capa_2" data-name="Capa 2" xmlns="http://www.w3.org/2000/svg" viewBox="0 0 674.44 818.1">
  <defs>
    <style>
      .cls-1, .cls-2 {
        fill: #f3f4f6;
      }

      .cls-2 {
        font-family: Lovelo-Black, Lovelo;
        font-size: 86.57px;
        font-weight: 800;
      }

      .cls-3 {
        letter-spacing: -.02em;
      }

      .cls-4 {
        fill: #00a5ab;
      }

      .cls-5 {
        fill: #62c0cb;
      }
    </style>
  </defs>
  <g id="Capa_1-2" data-name="Capa 1">
    <g>
      <g>
        <path class="cls-4" d="M337.19,149.51c-160.3,0-294.38,110.92-328.64,259.55,34.26,148.63,168.33,259.55,328.64,259.55s294.38-110.92,328.66-259.55c-34.28-148.62-168.35-259.55-328.66-259.55Z"/>
        <path class="cls-5" d="M337.22,149.51c160.31,0,294.38,110.91,328.65,259.55,5.56-24.04,8.57-49.04,8.57-74.75C674.44,149.67,523.46,0,337.22,0S0,149.67,0,334.31c0,25.71,3.03,50.7,8.58,74.75C42.84,260.42,176.9,149.51,337.22,149.51Z"/>
        <path class="cls-1" d="M296.49,526.86v-191.07l-78.28-.06v-46.5h203.11v46.5l-78.28,.06v191.07h-46.54Z"/>
        <path class="cls-1" d="M546.14,414.89l16.6-46.55,37.89-95.74h53.71l-102.99,254.27h-10.42l-96.35-237.63h50.43"/>
        <path class="cls-1" d="M229.84,526.86h-53.7l-30.93-77.48-16.92-48.17-16.61,46.55-42.24,107.51-42.72-28.42,96.35-237.63h10.42l96.35,237.63Z"/>
        <path class="cls-5" d="M337.22,668.59c-160.32,0-294.38-110.92-328.64-259.54C3.03,433.1,0,458.11,0,483.81c0,184.63,150.97,334.29,337.22,334.29s337.22-149.66,337.22-334.29c0-25.71-3.01-50.71-8.57-74.75-34.27,148.62-168.34,259.54-328.65,259.54Z"/>
      </g>
      <text class="cls-2" transform="translate(193.08 623.84)"><tspan x="0" y="0">can</tspan><tspan class="cls-3" x="169.6" y="0">t</tspan><tspan x="214.96" y="0">o</tspan></text>
    </g>
  </g>
</svg>