<svg width="41" height="41" viewBox="0 0 41 41" fill="none" xmlns="http://www.w3.org/2000/svg">
<g clip-path="url(#clip0_92_3310)">
<path d="M34.8526 5.9605C32.9729 4.06342 30.7345 2.55941 28.2677 1.5361C25.8009 0.512795 23.1552 -0.00933845 20.4846 0.000126409C9.29419 0.000126409 0.17425 9.1175 0.164 20.3105C0.164 23.8954 1.10188 27.383 2.87256 30.4708L0 41.0001L10.7727 38.1763C13.7529 39.7981 17.0917 40.6482 20.4846 40.6491H20.4949C31.6879 40.6491 40.8053 31.5317 40.8155 20.3284C40.8181 17.6584 40.2923 15.0143 39.2684 12.5484C38.2446 10.0825 36.743 7.84351 34.85 5.9605H34.8526ZM20.4846 37.2102C17.4583 37.2112 14.4876 36.3968 11.8849 34.8527L11.2699 34.4837L4.879 36.1596L6.58562 29.925L6.18588 29.2818C4.49413 26.592 3.59941 23.4778 3.60544 20.3003C3.60544 11.0086 11.1828 3.42875 20.4949 3.42875C22.7133 3.42477 24.9106 3.85995 26.9601 4.70921C29.0096 5.55847 30.8707 6.805 32.4361 8.37694C34.007 9.94275 35.2524 11.8041 36.1003 13.8536C36.9483 15.9031 37.382 18.1002 37.3766 20.3182C37.3664 29.6431 29.7891 37.2102 20.4846 37.2102V37.2102ZM29.7481 24.5668C29.2433 24.3131 26.7499 23.0857 26.281 22.9114C25.8146 22.7449 25.4738 22.6578 25.1407 23.1651C24.7999 23.6699 23.8261 24.8205 23.534 25.1511C23.2419 25.4919 22.9395 25.5303 22.4321 25.2792C21.9273 25.0229 20.2899 24.4899 18.3526 22.7551C16.8408 21.4098 15.8286 19.7442 15.5262 19.2394C15.2341 18.732 15.498 18.4604 15.7517 18.2067C15.9746 17.9812 16.2565 17.6122 16.5102 17.3201C16.7664 17.0279 16.851 16.8127 17.0176 16.4744C17.1841 16.1311 17.1047 15.8389 16.9791 15.5853C16.851 15.3316 15.8388 12.828 15.4109 11.8184C15.0009 10.8216 14.5832 10.9599 14.2706 10.9471C13.9784 10.9292 13.6376 10.9292 13.2968 10.9292C13.0394 10.9356 12.7862 10.9951 12.5529 11.104C12.3196 11.213 12.1114 11.3689 11.9412 11.5621C11.4749 12.0695 10.1706 13.2969 10.1706 15.8005C10.1706 18.3041 11.9899 20.7103 12.2462 21.0511C12.4973 21.3919 15.8183 26.5143 20.9151 28.7181C22.1195 29.2434 23.0676 29.5534 23.8082 29.7892C25.0254 30.1787 26.1247 30.1198 27.0011 29.9942C27.9748 29.8456 30.0018 28.7642 30.4297 27.5778C30.8499 26.3888 30.8499 25.374 30.7218 25.1613C30.5963 24.9461 30.2554 24.8205 29.7481 24.5668V24.5668Z" fill="#17A2AF"/>
</g>
<defs>
<clipPath id="clip0_92_3310">
<rect width="41" height="41" fill="white"/>
</clipPath>
</defs>
</svg>
