<?xml version="1.0" standalone="no"?>
<!DOCTYPE svg PUBLIC "-//W3C//DTD SVG 20010904//EN"
 "http://www.w3.org/TR/2001/REC-SVG-20010904/DTD/svg10.dtd">
<svg version="1.0" xmlns="http://www.w3.org/2000/svg"
 width="956.000000pt" height="956.000000pt" viewBox="0 0 956.000000 956.000000"
 preserveAspectRatio="xMidYMid meet">
<metadata>
Created by potrace 1.14, written by Peter Selinger 2001-2017
</metadata>
<g transform="translate(0.000000,956.000000) scale(0.100000,-0.100000)"
fill="#000000" stroke="none">
<path d="M4692 9508 c-26 -66 -45 -111 -47 -118 -7 -20 -37 -95 -55 -135 -5
-11 -38 -92 -74 -180 -223 -553 -356 -882 -378 -935 -6 -14 -12 -30 -13 -35
-2 -6 -13 -33 -25 -59 -12 -27 -23 -56 -25 -66 -2 -10 -8 -26 -14 -36 -9 -16
-28 -59 -36 -84 -1 -3 -6 -16 -12 -30 -26 -61 -125 -306 -127 -315 -2 -5 -10
-27 -20 -47 -9 -21 -16 -40 -16 -42 0 -3 -12 -31 -26 -63 -15 -31 -27 -62 -29
-67 -3 -13 -13 -39 -36 -91 -9 -22 -16 -43 -16 -46 1 -3 -4 -13 -12 -22 -7
-10 -10 -17 -7 -17 4 0 1 -10 -6 -22 -7 -13 -17 -36 -24 -53 -10 -27 -148
-367 -293 -724 -28 -69 -51 -131 -51 -138 0 -7 -4 -13 -10 -13 -5 0 -10 -6
-10 -13 0 -6 -23 -68 -51 -137 -28 -69 -52 -131 -53 -138 -1 -7 -8 -18 -14
-24 -7 -7 -12 -17 -12 -23 0 -11 -40 -117 -60 -160 -24 -50 -113 -272 -117
-292 -3 -13 -10 -23 -16 -23 -6 0 -8 -3 -4 -6 3 -3 -19 -65 -50 -137 -30 -73
-62 -152 -70 -177 -9 -25 -22 -54 -29 -65 -7 -11 -13 -22 -13 -25 1 -8 -34
-101 -62 -165 -10 -24 -32 -78 -34 -85 -1 -3 -9 -22 -18 -44 -9 -21 -17 -41
-17 -45 0 -3 -7 -19 -16 -36 -9 -16 -17 -37 -19 -45 -2 -8 -11 -33 -21 -55
-10 -22 -18 -42 -19 -45 -1 -3 -6 -16 -12 -30 -6 -14 -21 -50 -32 -80 -12 -30
-26 -64 -31 -75 -5 -11 -29 -71 -54 -132 -25 -62 -51 -128 -59 -145 -28 -64
-88 -213 -90 -223 -2 -5 -6 -16 -10 -22 -5 -7 -10 -21 -12 -30 -2 -10 -37 -99
-78 -198 -95 -230 -90 -219 -92 -225 -5 -15 -27 -68 -35 -85 -5 -11 -28 -67
-51 -125 -22 -58 -46 -116 -52 -130 -6 -14 -11 -27 -12 -30 -4 -11 -26 -66
-34 -85 -5 -11 -23 -56 -41 -100 -17 -44 -35 -89 -40 -100 -5 -11 -19 -45 -31
-75 -11 -30 -27 -71 -36 -90 -25 -57 -31 -71 -63 -155 -18 -44 -42 -105 -55
-135 -13 -30 -46 -113 -75 -185 -28 -71 -60 -149 -71 -172 -10 -24 -19 -46
-19 -50 -1 -5 -9 -26 -20 -48 -10 -22 -16 -43 -14 -47 3 -5 0 -8 -5 -8 -6 0
-11 -7 -11 -15 0 -8 -4 -23 -9 -33 -9 -15 -54 -127 -82 -198 -6 -16 -9 -29 -7
-29 2 -1 -4 -12 -13 -25 -9 -14 -22 -42 -29 -63 -7 -22 -18 -51 -26 -65 -8
-15 -14 -32 -14 -38 0 -6 -6 -24 -14 -40 -13 -25 -35 -77 -41 -94 -1 -3 -5
-14 -10 -25 -4 -11 -23 -58 -42 -105 -19 -47 -38 -94 -43 -105 -13 -28 -231
-568 -234 -580 -2 -5 -13 -32 -24 -58 -12 -27 -22 -52 -22 -55 0 -4 -6 -18
-13 -32 -8 -14 -19 -40 -25 -58 l-11 -32 1015 0 c870 0 1014 2 1014 14 0 12
53 151 115 301 5 11 9 22 10 25 1 3 7 19 14 35 7 17 22 55 33 85 11 30 26 69
33 85 7 17 31 75 52 130 22 55 44 109 48 120 5 11 9 22 10 25 1 3 7 18 13 33
7 16 12 31 12 34 0 3 7 19 15 36 8 18 28 68 45 112 17 44 35 89 40 100 12 24
32 76 36 90 2 11 97 250 118 300 7 17 28 68 46 115 17 47 36 94 41 105 16 35
121 300 123 310 1 6 12 32 24 59 12 27 22 51 22 55 0 5 75 195 100 256 5 11
18 43 29 70 11 28 43 109 72 180 28 72 52 135 53 140 2 6 10 28 20 50 46 105
207 520 207 532 0 5 8 16 16 26 9 9 13 17 9 17 -3 0 0 13 9 30 8 16 15 32 15
35 0 3 7 22 15 42 8 20 45 120 81 222 36 102 83 233 104 291 21 58 48 132 59
165 11 33 52 148 91 255 39 107 73 200 74 205 2 6 6 17 9 25 3 8 33 94 67 190
53 154 76 218 106 295 4 11 8 22 9 25 8 32 38 111 44 114 4 3 47 -95 96 -217
49 -122 97 -241 107 -264 10 -24 19 -46 19 -50 1 -5 6 -17 12 -28 6 -11 12
-22 12 -25 0 -3 6 -14 12 -25 6 -11 10 -22 10 -25 -2 -5 13 -42 53 -135 10
-22 29 -69 43 -105 14 -36 31 -78 38 -95 7 -16 13 -32 14 -35 3 -8 24 -60 60
-145 18 -44 61 -150 95 -235 57 -143 91 -225 126 -307 8 -17 14 -33 14 -36 0
-2 8 -22 17 -43 9 -22 17 -41 18 -44 1 -3 6 -16 12 -30 6 -14 21 -50 33 -80
12 -30 27 -66 33 -80 5 -14 11 -29 13 -35 1 -5 12 -32 24 -60 12 -27 25 -59
29 -70 5 -11 19 -45 31 -75 12 -30 26 -64 30 -75 5 -11 15 -36 23 -55 8 -19
45 -109 81 -200 37 -91 71 -174 76 -185 5 -11 47 -114 94 -230 88 -221 131
-327 146 -360 5 -11 23 -56 41 -100 17 -44 37 -93 44 -110 7 -16 32 -77 54
-135 23 -58 50 -120 59 -139 9 -19 17 -37 17 -40 0 -7 40 -109 61 -156 33 -74
105 -251 109 -265 3 -14 81 -204 144 -350 l27 -65 935 -1 c514 0 939 2 945 4
8 2 -26 96 -88 250 -56 136 -109 267 -119 292 -9 25 -23 59 -30 75 -7 17 -13
32 -14 35 -8 23 -18 48 -24 60 -5 9 -39 92 -76 185 -37 94 -74 186 -82 205
-29 67 -32 75 -54 130 -12 30 -27 69 -34 85 -22 50 -106 259 -109 270 -2 6
-10 27 -20 47 -9 21 -16 40 -16 43 0 3 -8 24 -19 48 -10 23 -28 65 -40 94 -11
28 -26 64 -33 80 -6 15 -12 31 -12 35 -1 3 -4 10 -8 14 -5 4 -8 16 -8 26 0 10
-5 18 -10 18 -6 0 -9 3 -8 8 3 9 -33 104 -44 116 -4 6 -8 15 -8 22 0 6 -10 33
-22 60 -12 27 -23 52 -24 57 -1 4 -3 9 -4 12 -1 3 -3 8 -4 13 -2 4 -8 18 -14
32 -6 14 -37 88 -67 165 -31 77 -60 149 -65 160 -24 54 -52 121 -54 130 -2 6
-9 24 -15 40 -7 17 -19 46 -26 65 -7 19 -22 55 -33 80 -11 25 -37 88 -57 140
-21 52 -46 114 -56 137 -11 23 -19 48 -19 55 0 8 -4 18 -8 23 -5 6 -21 42 -36
80 -16 39 -34 81 -41 95 -7 14 -13 27 -13 30 0 3 -7 23 -17 45 -9 22 -18 45
-19 50 -3 10 -15 41 -39 95 -6 14 -11 27 -12 30 -1 3 -7 18 -13 33 -7 16 -12
30 -12 32 0 3 -12 30 -26 62 -15 31 -27 62 -29 67 -3 16 -15 45 -41 103 -13
28 -24 57 -24 63 0 5 -4 18 -10 28 -5 9 -46 107 -90 217 -101 250 -159 394
-171 420 -8 19 -30 74 -34 85 -7 20 -20 52 -41 98 -13 29 -24 56 -24 59 0 10
-149 374 -164 403 -8 14 -14 27 -14 30 -1 8 -12 36 -115 290 -54 135 -107 268
-117 296 -10 28 -22 59 -28 70 -5 10 -14 30 -20 44 -5 14 -17 41 -26 62 -9 20
-16 38 -16 41 0 3 -9 26 -20 51 -11 26 -20 48 -20 51 0 3 -10 26 -21 52 -32
75 -42 97 -45 108 -3 10 -115 289 -133 330 -44 102 -61 144 -61 149 0 4 -9 26
-19 49 -10 23 -51 123 -91 222 -68 170 -83 205 -116 282 -8 17 -14 34 -14 38
0 3 -9 25 -19 48 -11 23 -52 123 -91 222 -40 99 -77 191 -83 205 -5 14 -11 30
-13 35 -2 9 -87 216 -119 290 -7 17 -61 150 -121 298 l-108 267 -196 0 -196 0
-22 -52z"/>
</g>
</svg>
