<?xml version="1.0" standalone="no"?>
<!DOCTYPE svg PUBLIC "-//W3C//DTD SVG 20010904//EN"
 "http://www.w3.org/TR/2001/REC-SVG-20010904/DTD/svg10.dtd">
<svg version="1.0" xmlns="http://www.w3.org/2000/svg"
 width="320.000000pt" height="320.000000pt" viewBox="0 0 320.000000 320.000000"
 preserveAspectRatio="xMidYMid meet">
<metadata>
Created by potrace 1.14, written by Peter Selinger 2001-2017
</metadata>
<g transform="translate(0.000000,320.000000) scale(0.100000,-0.100000)"
fill="#000000" stroke="none">
<path d="M1389 2936 c-2 -3 -58 -12 -124 -20 -179 -24 -216 -45 -472 -282 -59
-54 -91 -92 -113 -136 -36 -73 -38 -120 -10 -211 14 -45 18 -72 11 -89 -31
-83 -20 -183 33 -295 47 -98 92 -139 232 -211 83 -42 132 -74 162 -106 24 -25
47 -46 52 -46 9 0 26 -44 34 -88 16 -94 -45 -286 -108 -339 -29 -24 -30 -25
-6 -18 14 4 53 20 87 35 51 23 68 38 99 84 20 31 42 56 49 56 20 0 72 -64 86
-107 7 -21 13 -62 13 -90 1 -65 16 -63 35 3 18 63 4 150 -44 274 -19 49 -39
118 -45 152 -13 73 -47 195 -61 221 -8 15 -3 26 24 56 19 21 37 44 39 52 4 11
9 10 26 -5 14 -12 29 -16 45 -12 32 8 57 -21 95 -105 42 -94 80 -131 190 -190
53 -28 134 -76 180 -107 67 -45 87 -65 107 -106 14 -27 25 -64 26 -80 1 -17 7
3 15 44 7 41 18 85 23 97 14 30 89 72 169 93 94 24 132 43 167 80 l30 32 -29
-8 c-17 -4 -57 0 -101 11 -63 16 -85 17 -161 8 -86 -11 -112 -9 -234 16 -179
37 -331 136 -355 232 -10 42 -53 82 -81 75 -18 -5 -30 2 -55 29 -18 20 -36 32
-41 27 -10 -10 0 -42 13 -42 14 0 11 -26 -5 -39 -19 -16 -57 6 -48 28 5 13 3
13 -12 -1 -23 -23 -43 -23 -58 2 -7 11 -23 20 -35 20 -14 0 -23 6 -23 15 0 22
-7 19 -41 -16 l-30 -30 -53 25 c-90 42 -116 98 -81 166 25 48 60 60 160 55 59
-3 94 -10 105 -20 9 -8 30 -20 48 -26 17 -6 34 -19 37 -30 11 -33 25 -21 25
21 0 22 5 70 12 107 14 84 5 143 -22 143 -44 0 -22 124 27 151 31 17 74 80 63
93 -5 7 -3 19 6 30 20 28 18 57 -2 49 -13 -5 -14 -3 -6 13 22 41 70 76 111 81
40 5 41 7 41 43 0 31 -7 44 -39 73 -54 48 -92 67 -139 67 -21 0 -41 -2 -43 -4z
m116 -38 c43 -20 89 -71 83 -89 -3 -8 -10 -6 -20 5 -9 9 -22 16 -28 16 -7 0
-30 16 -53 35 -26 23 -47 33 -57 29 -68 -30 -85 -32 -91 -16 -10 25 8 40 49
45 45 4 65 0 117 -25z m-220 -177 c-6 -4 -23 -11 -40 -15 -28 -6 -29 -5 -11 9
21 16 67 22 51 6z m41 -61 c20 0 17 -38 -3 -49 -10 -5 -37 -11 -61 -14 -23 -2
-50 -11 -60 -20 -19 -17 -52 -7 -52 16 1 17 29 48 65 72 47 31 68 35 84 14 7
-11 20 -19 27 -19z m-175 -39 c-15 -27 -58 -54 -64 -38 -2 6 -11 -1 -20 -18
-14 -26 -16 -27 -17 -9 0 25 24 49 40 39 5 -3 10 -2 10 2 0 7 47 42 58 43 1 0
-2 -8 -7 -19z m102 -741 c11 -10 17 -27 15 -41 l-3 -24 -25 27 c-34 36 -50 56
-50 63 0 11 44 -6 63 -25z m96 -27 c9 -6 -23 -33 -40 -33 -13 0 -19 7 -19 24
0 28 18 38 40 22 8 -5 17 -12 19 -13z"/>
<path d="M1706 2615 c-40 -14 -111 -75 -88 -75 6 0 12 4 12 9 0 5 20 19 45 31
90 43 193 23 236 -46 31 -51 43 -30 14 26 -20 40 -32 51 -62 59 -51 15 -110
13 -157 -4z"/>
<path d="M1818 2492 c-74 -4 -76 -22 -2 -22 30 0 65 -5 76 -11 16 -8 22 -8 29
2 16 27 -17 37 -103 31z"/>
<path d="M2072 2468 c5 -15 28 -23 28 -10 0 5 -7 13 -16 16 -10 4 -14 1 -12
-6z"/>
<path d="M2145 2340 c-22 -24 -13 -56 13 -45 9 5 32 13 50 19 34 12 42 30 16
40 -30 11 -61 6 -79 -14z"/>
<path d="M2266 2273 c-6 -14 -5 -15 5 -6 7 7 10 15 7 18 -3 3 -9 -2 -12 -12z"/>
<path d="M2184 2220 c-28 -11 -40 -30 -15 -23 23 6 38 -14 22 -30 -16 -16 -14
-30 4 -23 8 3 15 2 15 -3 0 -5 15 -16 34 -25 18 -9 41 -27 50 -40 20 -31 56
-31 56 -1 0 12 -7 43 -16 69 -24 71 -86 102 -150 76z m76 -90 c0 -5 -4 -10
-10 -10 -5 0 -10 5 -10 10 0 6 5 10 10 10 6 0 10 -4 10 -10z m35 -10 c3 -5 1
-10 -4 -10 -6 0 -11 5 -11 10 0 6 2 10 4 10 3 0 8 -4 11 -10z m35 -41 c0 -5
-4 -9 -10 -9 -5 0 -10 7 -10 16 0 8 5 12 10 9 6 -3 10 -10 10 -16z"/>
<path d="M1066 2121 c-5 -7 2 -11 18 -11 14 0 28 -5 31 -11 4 -5 18 -15 33
-20 18 -7 22 -13 14 -21 -13 -13 13 -58 33 -58 18 0 2 78 -21 101 -23 22 -98
36 -108 20z"/>
<path d="M2155 2080 c-13 -14 -22 -17 -30 -10 -13 11 -25 -7 -25 -38 0 -23 41
-79 68 -91 27 -13 62 5 62 31 0 21 20 24 38 6 18 -18 15 -28 -8 -28 -20 0 -20
-1 2 -34 17 -25 38 -41 78 -55 30 -11 56 -18 59 -16 8 9 -44 57 -78 71 -28 12
-33 18 -29 39 4 16 1 25 -8 25 -8 0 -14 15 -16 36 -2 21 -10 40 -18 44 -8 4
-29 14 -46 23 -30 16 -32 15 -49 -3z"/>
<path d="M1232 2052 c1 -15 -4 -37 -11 -49 -15 -29 -14 -33 8 -33 11 0 23 -5
26 -10 19 -31 27 27 10 75 -4 11 -9 26 -11 33 -7 23 -23 12 -22 -16z"/>
<path d="M1026 2045 c-13 -36 29 -97 81 -115 l28 -10 -28 25 c-15 13 -36 45
-47 70 -21 49 -25 53 -34 30z"/>
<path d="M1330 1946 c0 -9 5 -16 10 -16 6 0 10 4 10 9 0 6 -4 13 -10 16 -5 3
-10 -1 -10 -9z"/>
<path d="M2335 1830 c3 -5 11 -10 16 -10 6 0 7 5 4 10 -3 6 -11 10 -16 10 -6
0 -7 -4 -4 -10z"/>
<path d="M2002 1110 c-1 -8 -23 -45 -48 -83 -42 -61 -47 -74 -50 -135 -3 -46
-1 -59 5 -42 5 14 29 70 55 124 30 63 45 109 43 125 -2 14 -5 19 -5 11z"/>
<path d="M2030 1089 c0 -13 -10 -70 -21 -127 -17 -84 -20 -121 -14 -198 8
-112 25 -116 25 -6 0 42 5 137 10 211 6 74 8 136 5 139 -3 3 -5 -6 -5 -19z"/>
<path d="M1882 756 c-13 -70 -15 -110 -6 -143 13 -47 19 -19 22 92 1 63 1 115
-1 115 -2 0 -9 -29 -15 -64z"/>
<path d="M704 802 c3 -5 24 -12 47 -16 102 -16 182 -94 251 -242 40 -87 68
-118 68 -76 0 23 -60 123 -124 209 -39 51 -64 74 -106 95 -57 28 -147 48 -136
30z"/>
<path d="M1335 734 c58 -24 204 -58 213 -50 8 9 -55 34 -101 40 -27 4 -67 14
-89 22 -69 24 -87 15 -23 -12z"/>
<path d="M2475 645 c11 -77 40 -195 47 -195 5 0 8 2 8 5 0 20 -33 157 -45 190
l-16 40 6 -40z"/>
<path d="M1355 621 c3 -5 39 -25 79 -45 52 -24 85 -48 112 -80 33 -39 44 -46
75 -46 29 0 38 4 42 22 3 12 4 25 1 29 -13 21 -196 108 -248 118 -72 13 -69
13 -61 2z"/>
</g>
</svg>
